<svg width="40" height="25" viewBox="0 0 40 25" fill="none" xmlns="http://www.w3.org/2000/svg">
<path fill-rule="evenodd" clip-rule="evenodd" d="M13.4986 19.828C13.3928 19.823 13.275 19.8184 13.1444 19.8144C12.378 19.7912 11.3417 19.791 9.89541 19.791C8.44923 19.791 7.41292 19.7913 6.6465 19.8145C6.51577 19.8185 6.39807 19.8231 6.29224 19.8281C6.56087 21.5765 8.07174 22.9155 9.89541 22.9155C11.7191 22.9155 13.2301 21.5764 13.4986 19.828ZM6.2563 18.8973C6.25641 18.8974 6.2561 18.9005 6.25537 18.9061C6.25589 18.9001 6.2563 18.8972 6.2563 18.8973ZM5.43061 19.913C5.43093 19.9129 5.43134 19.9128 5.43165 19.9127L5.43061 19.913ZM14.3593 19.9126C14.3597 19.9127 14.36 19.9128 14.3603 19.9129L14.3593 19.9126ZM13.5355 18.906C13.5346 18.9003 13.5344 18.8973 13.5345 18.8972C13.5345 18.8971 13.5349 18.8999 13.5355 18.906ZM9.89541 24.9988C13.0594 24.9988 15.6243 22.4339 15.6243 19.2699C15.6243 18.8073 15.6243 18.4818 15.4757 18.2526C15.1223 17.7077 13.9284 17.7078 9.89541 17.7078C4.1665 17.7078 4.1665 17.7079 4.1665 19.2699C4.1665 22.4339 6.73139 24.9988 9.89541 24.9988Z" fill="#E5890A"/>
<path fill-rule="evenodd" clip-rule="evenodd" d="M24.472 15.6243H18.7491V17.7075H24.2062L24.472 15.6243ZM16.6659 13.541V19.7907H26.0405L26.8379 13.541H16.6659Z" fill="#E5890A"/>
<path fill-rule="evenodd" clip-rule="evenodd" d="M26.1997 5.20813H31.2486V14.5827H29.1654V7.29137H27.9645L26.0263 18.9204L23.9714 18.5779L26.1997 5.20813Z" fill="#E5890A"/>
<path fill-rule="evenodd" clip-rule="evenodd" d="M29.2304 19.9552C29.6088 21.9328 31.5186 23.2292 33.4962 22.8508C35.4738 22.4725 36.7702 20.5625 36.3918 18.5849L38.438 18.1935C39.0325 21.301 36.9953 24.3023 33.8878 24.8969C30.7801 25.4915 27.7789 23.4543 27.1842 20.3467L29.2304 19.9552Z" fill="#E5890A"/>
<path fill-rule="evenodd" clip-rule="evenodd" d="M37.1307 17.449C36.7906 16.6419 36.2282 15.9392 35.4994 15.4289C34.481 14.7158 33.2212 14.4366 31.9969 14.6524C30.7726 14.8682 29.6843 15.5616 28.9713 16.5799C28.4609 17.3088 28.1727 18.1615 28.1293 19.0363L37.1307 17.449ZM37.2475 17.4284C37.2481 17.4282 37.2475 17.4284 37.2475 17.4284V17.4284ZM37.6078 19.4803L28.3757 21.1083C27.3055 21.2969 26.0306 20.5773 26.0405 19.2191C26.0505 17.8561 26.472 16.5173 27.2648 15.3851C28.2947 13.9142 29.8667 12.9126 31.6351 12.6008C33.4036 12.289 35.2234 12.6925 36.6942 13.7224C37.8265 14.5151 38.6805 15.6291 39.156 16.9065C39.6298 18.1793 38.6779 19.2917 37.6078 19.4803Z" fill="#E5890A"/>
<path fill-rule="evenodd" clip-rule="evenodd" d="M16.6659 7.29137H7.29136C6.71608 7.29137 6.24974 7.7577 6.24974 8.33299V9.37461H17.7076V8.33299C17.7076 7.7577 17.2412 7.29137 16.6659 7.29137ZM7.29136 5.20813C5.5655 5.20813 4.1665 6.60713 4.1665 8.33299V10.4162C4.1665 10.9915 4.63286 11.4578 5.20812 11.4578H18.7492C19.3245 11.4578 19.7908 10.9915 19.7908 10.4162V8.33299C19.7908 6.60713 18.3918 5.20813 16.6659 5.20813H7.29136Z" fill="#E5890A"/>
<path fill-rule="evenodd" clip-rule="evenodd" d="M16.6659 11.4579H9.9533C6.16222 11.4579 2.99719 14.1384 2.25021 17.7076H16.6659V11.4579ZM9.9533 9.37463C4.45622 9.37463 0 13.8309 0 19.3279C0 19.5835 0.207261 19.7908 0.462937 19.7908H16.6659C17.8165 19.7908 18.7491 18.8582 18.7491 17.7076V10.2079C18.7491 9.74774 18.376 9.37463 17.9159 9.37463H9.9533Z" fill="#E5890A"/>
<path fill-rule="evenodd" clip-rule="evenodd" d="M31.2486 2.08324H28.6446C27.7817 2.08324 27.0821 2.78279 27.0821 3.64567C27.0821 4.50854 27.7817 5.2081 28.6446 5.2081H31.2486V2.08324ZM28.6446 0C26.6311 0 24.9989 1.63222 24.9989 3.64567C24.9989 5.65912 26.6311 7.29134 28.6446 7.29134H32.6908C33.0449 7.29134 33.3319 7.00437 33.3319 6.65032V0.641013C33.3319 0.286966 33.0449 0 32.6908 0H28.6446Z" fill="#E5890A"/>
<path d="M21.0127 2.06754C21.1123 1.501 21.6523 1.12237 22.2189 1.22195L25.2966 1.76286C25.8632 1.86244 26.2418 2.40242 26.1422 2.96906C26.0426 3.53559 25.5026 3.91422 24.936 3.81464L21.8583 3.27373C21.2918 3.17415 20.9131 2.63418 21.0127 2.06754Z" fill="#E5890A"/>
</svg>
