<svg width="27" height="27" viewBox="0 0 27 27" fill="none" xmlns="http://www.w3.org/2000/svg">
<path d="M2.4 6.63322V4.125C2.4 3.17231 3.17231 2.4 4.125 2.4H8.25718C9.10043 2.4 9.82008 3.00964 9.95871 3.84141L10.5356 7.30288C10.66 8.04938 10.2229 8.77545 9.50492 9.01477L8.75173 9.26584C7.73214 9.6057 7.15566 10.6829 7.43844 11.7197L8.22226 14.5937C8.77777 16.6306 10.3145 18.2551 12.3174 18.9227L14.2242 19.5583C15.0905 19.8471 16.0429 19.5203 16.5494 18.7605L17.4606 17.3937C17.8921 16.7464 18.7035 16.4681 19.4414 16.7141L23.4205 18.0404C24.1249 18.2752 24.6 18.9344 24.6 19.6769V22.8832C24.6 23.8359 23.8277 24.6082 22.875 24.6082H20.375C10.4477 24.6082 2.4 16.5605 2.4 6.63322ZM4.125 0.85C2.31627 0.85 0.85 2.31627 0.85 4.125V6.63322C0.85 17.4166 9.59164 26.1582 20.375 26.1582H22.875C24.6837 26.1582 26.15 24.692 26.15 22.8832V19.6769C26.15 18.2672 25.248 17.0157 23.9106 16.57L19.9316 15.2436C18.5305 14.7766 16.9902 15.3051 16.171 16.5339L15.2598 17.9007C15.1409 18.0789 14.9175 18.1556 14.7143 18.0879L12.8076 17.4523C11.2963 16.9485 10.1368 15.7228 9.71764 14.1859L8.93382 11.3119C8.86749 11.0687 9.00272 10.816 9.24188 10.7363L9.99508 10.4852C11.4366 10.0047 12.3143 8.5469 12.0645 7.04806L11.4876 3.58659C11.2244 2.00743 9.85813 0.85 8.25718 0.85H4.125Z" fill="#E5890A" stroke="#E5890A" stroke-width="0.3"/>
</svg>
